<svg xmlns="http://www.w3.org/2000/svg" viewBox="-60 -60 658 198"><style>@keyframes dash{0%{stroke-dashoffset:727px}to{stroke-dashoffset:0}}@keyframes stroke-width{0%{stroke-width:3px}to{stroke-width:8px}}@keyframes fade{0%{opacity:0}to{opacity:1}}@keyframes glow{0%{filter:drop-shadow(0 0 2px #fff6) drop-shadow(0 0 8px var(--color)) drop-shadow(0 0 26px var(--color))}to{filter:drop-shadow(0 0 1.8px #fff6) drop-shadow(0 0 7.2px var(--color)) drop-shadow(0 0 23.5px var(--color))}}@keyframes flicker{0%,18%,22%,25%,53%,57%,to{opacity:1}20%,24%,55%{opacity:.87}}:root{--red:#f69;--pink:#f9e;--blue:#78f;--neon-animation:glow 0.11s ease-in-out 0s infinite alternate, flicker 2s infinite 2.8s alternate}path{fill:none;stroke:var(--color);stroke-linecap:round;stroke-linejoin:round;stroke-width:3px;stroke-dasharray:727px;stroke-dashoffset:727px;animation:dash 1s cubic-bezier(.8,0,.2,1) var(--delay) forwards,stroke-width 1s cubic-bezier(.8,0,.2,1) calc(var(--delay) + .5s) forwards,fade .2s linear calc(var(--delay) + 0s) forwards,var(--neon-animation);--color:var(--pink)}.blue{--color:var(--blue)}.red{--color:var(--red)}</style><path d="M19.07 21.59L19.07 60L14.09 60L14.09 21.59L0.53 21.59L0.53 17.17L32.64 17.17L32.64 21.59L19.07 21.59Z" class="blue" style="--delay:0.5s"/><path d="M65.19 60L60.32 60L60.32 39.23Q60.32 35.30 58.54 33.37Q56.75 31.44 52.94 31.44L52.94 31.44Q47.87 31.44 45.54 34.19Q43.21 36.94 43.21 43.21L43.21 43.21L43.21 60L38.35 60L38.35 14.41L43.21 14.41L43.21 28.21Q43.21 30.70 42.98 32.34L42.98 32.34L43.27 32.34Q44.71 30.03 47.36 28.70Q50.01 27.36 53.41 27.36L53.41 27.36Q59.30 27.36 62.24 30.16Q65.19 32.96 65.19 39.05L65.19 39.05L65.19 60Z" style="--delay:0.7s"/><path d="M74.82 27.89L79.75 27.89L79.75 48.72Q79.75 52.65 81.53 54.58Q83.32 56.51 87.13 56.51L87.13 56.51Q92.17 56.51 94.50 53.76Q96.83 51.01 96.83 44.77L96.83 44.77L96.83 27.89L101.69 27.89L101.69 60L97.68 60L96.97 55.69L96.71 55.69Q95.21 58.07 92.56 59.33Q89.91 60.59 86.51 60.59L86.51 60.59Q80.65 60.59 77.74 57.80Q74.82 55.02 74.82 48.90L74.82 48.90L74.82 27.89Z" style="--delay:0.9s"/><path d="M161.78 17.17L161.78 60L156.09 60L132.69 24.05L132.45 24.05Q132.92 30.38 132.92 35.65L132.92 35.65L132.92 60L128.32 60L128.32 17.17L133.95 17.17L157.29 52.97L157.53 52.97Q157.47 52.18 157.27 47.89Q157.06 43.59 157.12 41.75L157.12 41.75L157.12 17.17L161.78 17.17Z" style="--delay:1.1s"/><path d="M188.00 27.89L199.10 27.89L199.10 30.97L193.15 31.67Q193.97 32.70 194.62 34.35Q195.26 36.01 195.26 38.09L195.26 38.09Q195.26 42.80 192.04 45.62Q188.82 48.43 183.19 48.43L183.19 48.43Q181.76 48.43 180.50 48.19L180.50 48.19Q177.39 49.83 177.39 52.32L177.39 52.32Q177.39 53.64 178.48 54.27Q179.56 54.90 182.20 54.90L182.20 54.90L187.88 54.90Q193.10 54.90 195.89 57.10Q198.69 59.30 198.69 63.49L198.69 63.49Q198.69 68.82 194.41 71.62Q190.14 74.41 181.93 74.41L181.93 74.41Q175.63 74.41 172.22 72.07Q168.81 69.73 168.81 65.45L168.81 65.45Q168.81 62.52 170.68 60.38Q172.56 58.24 175.96 57.48L175.96 57.48Q174.73 56.92 173.89 55.75Q173.06 54.58 173.06 53.03L173.06 53.03Q173.06 51.27 173.99 49.95Q174.93 48.63 176.95 47.40L176.95 47.40Q174.46 46.38 172.90 43.92Q171.33 41.46 171.33 38.29L171.33 38.29Q171.33 33.02 174.49 30.16Q177.66 27.30 183.46 27.30L183.46 27.30Q185.98 27.30 188.00 27.89L188.00 27.89ZM173.50 65.39L173.50 65.39Q173.50 68.00 175.69 69.35Q177.89 70.69 181.99 70.69L181.99 70.69Q188.12 70.69 191.06 68.86Q194.00 67.03 194.00 63.90L194.00 63.90Q194.00 61.29 192.39 60.28Q190.78 59.27 186.33 59.27L186.33 59.27L180.50 59.27Q177.19 59.27 175.34 60.85Q173.50 62.43 173.50 65.39ZM176.13 38.17L176.13 38.17Q176.13 41.54 178.04 43.27Q179.94 45 183.34 45L183.34 45Q190.46 45 190.46 38.09L190.46 38.09Q190.46 30.85 183.25 30.85L183.25 30.85Q179.82 30.85 177.98 32.70Q176.13 34.54 176.13 38.17Z" class="blue" style="--delay:1.3s"/><path d="M229.04 60L225.44 60L224.47 55.43L224.24 55.43Q221.84 58.45 219.45 59.52Q217.06 60.59 213.49 60.59L213.49 60.59Q208.71 60.59 206.00 58.13Q203.29 55.66 203.29 51.12L203.29 51.12Q203.29 41.40 218.85 40.93L218.85 40.93L224.30 40.75L224.30 38.76Q224.30 34.98 222.67 33.18Q221.04 31.38 217.47 31.38L217.47 31.38Q213.46 31.38 208.39 33.84L208.39 33.84L206.89 30.12Q209.27 28.83 212.09 28.10Q214.92 27.36 217.76 27.36L217.76 27.36Q223.51 27.36 226.27 29.91Q229.04 32.46 229.04 38.09L229.04 38.09L229.04 60ZM214.45 56.57L214.45 56.57Q218.99 56.57 221.59 54.08Q224.18 51.59 224.18 47.11L224.18 47.11L224.18 44.21L219.32 44.41Q213.52 44.62 210.95 46.22Q208.39 47.81 208.39 51.18L208.39 51.18Q208.39 53.82 209.99 55.20Q211.58 56.57 214.45 56.57Z" class="blue" style="--delay:1.5s"/><path d="M265.90 60L261.04 60L261.04 39.23Q261.04 35.30 259.25 33.37Q257.46 31.44 253.65 31.44L253.65 31.44Q248.61 31.44 246.27 34.16Q243.93 36.88 243.93 43.15L243.93 43.15L243.93 60L239.06 60L239.06 27.89L243.02 27.89L243.81 32.29L244.04 32.29Q245.54 29.91 248.23 28.61Q250.93 27.30 254.24 27.30L254.24 27.30Q260.04 27.30 262.97 30.10Q265.90 32.90 265.90 39.05L265.90 39.05L265.90 60Z" class="red" style="--delay:1.7s"/></svg>